<svg xmlns="http://www.w3.org/2000/svg" viewBox="0 0 163.5 59.28"><defs><style>.cls-2{fill:#12254b}.cls-3{fill:#005084}.cls-4{fill:#286eb7}.cls-5{fill:#ed2224}.cls-6{fill:#f99d1c}.cls-7{fill:#fcee23}.cls-8{fill:#416ab3}.cls-9{fill:#fff8f8}</style></defs><g id="Layer_2" data-name="Layer 2"><g id="Horizontal_Logo" data-name="Horizontal Logo"><g id="Off-white"><path fill="#0a212a" d="M0 0h163.5v59.28H0z"/><path class="cls-2" d="M45.86 41.52h1.11v1.11h-1.11z"/><path class="cls-2" d="M45.86 40.47h1.11v1.06h-1.11zm0-1.11h1.11v1.11h-1.11zm0-1.06h1.11v1.06h-1.11zm0-1.11h1.11v1.11h-1.11z"/><path class="cls-2" d="M45.86 36.13h1.11v1.06h-1.11zm0-1.11h1.11v1.11h-1.11z"/><path class="cls-2" d="M45.86 33.97h1.11v1.06h-1.11zm-1.06 8.66h1.06v1.06H44.8z"/><path class="cls-3" d="M44.8 41.52h1.06v1.11H44.8z"/><path class="cls-3" d="M44.8 40.47h1.06v1.06H44.8zm0-1.11h1.06v1.11H44.8zm0-1.06h1.06v1.06H44.8zm0-1.11h1.06v1.11H44.8z"/><path class="cls-3" d="M44.8 36.13h1.06v1.06H44.8zm0-1.11h1.06v1.11H44.8z"/><path class="cls-3" d="M44.8 33.97h1.06v1.06H44.8zm0-1.11h1.06v1.11H44.8z"/><path class="cls-2" d="M43.69 43.69h1.11v1.11h-1.11z"/><path class="cls-3" d="M43.69 42.63h1.11v1.06h-1.11zm0-1.11h1.11v1.11h-1.11z"/><path class="cls-3" d="M43.69 40.47h1.11v1.06h-1.11zm0-1.11h1.11v1.11h-1.11zm0-1.06h1.11v1.06h-1.11zm0-1.11h1.11v1.11h-1.11z"/><path class="cls-3" d="M43.69 36.13h1.11v1.06h-1.11zm0-1.11h1.11v1.11h-1.11z"/><path class="cls-4" d="M43.69 33.97h1.11v1.06h-1.11z"/><path class="cls-3" d="M43.69 32.86h1.11v1.11h-1.11z"/><path class="cls-2" d="M42.64 44.8h1.06v1.06h-1.06z"/><path class="cls-3" d="M42.64 43.69h1.06v1.11h-1.06z"/><path class="cls-3" d="M42.64 42.63h1.06v1.06h-1.06zm0-1.11h1.06v1.11h-1.06z"/><path class="cls-3" d="M42.64 40.47h1.06v1.06h-1.06zm0-1.11h1.06v1.11h-1.06zm0-1.06h1.06v1.06h-1.06zm0-1.11h1.06v1.11h-1.06z"/><path class="cls-3" d="M42.64 36.13h1.06v1.06h-1.06z"/><path class="cls-4" d="M42.64 35.02h1.06v1.11h-1.06z"/><path class="cls-3" d="M42.64 33.97h1.06v1.06h-1.06zm0-1.11h1.06v1.11h-1.06z"/><path class="cls-2" d="M42.64 31.8h1.06v1.06h-1.06zm0-1.11h1.06v1.11h-1.06z"/><path class="cls-2" d="M42.64 29.64h1.06v1.06h-1.06zm0-1.11h1.06v1.11h-1.06zm0-1.06h1.06v1.06h-1.06zm0-1.11h1.06v1.11h-1.06z"/><path class="cls-2" d="M42.64 25.31h1.06v1.06h-1.06zm0-1.11h1.06v1.11h-1.06zm0-1.06h1.06v1.06h-1.06zm0-1.11h1.06v1.11h-1.06zm0-1.06h1.06v1.06h-1.06zm0-1.11h1.06v1.11h-1.06z"/><path class="cls-2" d="M42.64 18.81h1.06v1.06h-1.06zm0-1.11h1.06v1.11h-1.06zm0-1.06h1.06v1.06h-1.06zm0-1.11h1.06v1.11h-1.06z"/><path class="cls-2" d="M42.64 14.48h1.06v1.06h-1.06zm0-1.11h1.06v1.11h-1.06zm-1.11 32.48h1.11v1.11h-1.11z"/><path class="cls-3" d="M41.53 44.8h1.11v1.06h-1.11zm0-1.11h1.11v1.11h-1.11z"/><path class="cls-3" d="M41.53 42.63h1.11v1.06h-1.11zm0-1.11h1.11v1.11h-1.11z"/><path class="cls-3" d="M41.53 40.47h1.11v1.06h-1.11zm0-1.11h1.11v1.11h-1.11zm0-1.06h1.11v1.06h-1.11zm0-1.11h1.11v1.11h-1.11z"/><path class="cls-4" d="M41.53 36.13h1.11v1.06h-1.11z"/><path class="cls-3" d="M41.53 35.02h1.11v1.11h-1.11z"/><path class="cls-3" d="M41.53 33.97h1.11v1.06h-1.11z"/><path class="cls-2" d="M41.53 32.86h1.11v1.11h-1.11z"/><path class="cls-3" d="M41.53 31.8h1.11v1.06h-1.11zm0-1.11h1.11v1.11h-1.11z"/><path class="cls-3" d="M41.53 29.64h1.11v1.06h-1.11zm0-1.11h1.11v1.11h-1.11zm0-1.06h1.11v1.06h-1.11zm0-1.11h1.11v1.11h-1.11z"/><path class="cls-3" d="M41.53 25.31h1.11v1.06h-1.11zm0-1.11h1.11v1.11h-1.11zm0-1.06h1.11v1.06h-1.11zm0-1.11h1.11v1.11h-1.11zm0-1.06h1.11v1.06h-1.11zm0-1.11h1.11v1.11h-1.11z"/><path class="cls-3" d="M41.53 18.81h1.11v1.06h-1.11zm0-1.11h1.11v1.11h-1.11zm0-1.06h1.11v1.06h-1.11zm0-1.11h1.11v1.11h-1.11z"/><path class="cls-3" d="M41.53 14.48h1.11v1.06h-1.11zm0-1.11h1.11v1.11h-1.11zm0-1.06h1.11v1.06h-1.11z"/><path class="cls-2" d="M40.47 45.85h1.06v1.11h-1.06z"/><path class="cls-3" d="M40.47 44.8h1.06v1.06h-1.06z"/><path class="cls-4" d="M40.47 43.69h1.06v1.11h-1.06z"/><path class="cls-4" d="M40.47 42.63h1.06v1.06h-1.06zm0-1.11h1.06v1.11h-1.06z"/><path class="cls-4" d="M40.47 40.47h1.06v1.06h-1.06zm0-1.11h1.06v1.11h-1.06zm0-1.06h1.06v1.06h-1.06z"/><path class="cls-3" d="M40.47 36.13h1.06v1.06h-1.06zm0-1.11h1.06v1.11h-1.06z"/><path class="cls-2" d="M40.47 33.97h1.06v1.06h-1.06z"/><path class="cls-3" d="M40.47 32.86h1.06v1.11h-1.06zm0-1.06h1.06v1.06h-1.06zm0-1.11h1.06v1.11h-1.06z"/><path class="cls-3" d="M40.47 29.64h1.06v1.06h-1.06zm0-1.11h1.06v1.11h-1.06zm0-1.06h1.06v1.06h-1.06zm0-1.11h1.06v1.11h-1.06z"/><path class="cls-3" d="M40.47 25.31h1.06v1.06h-1.06z"/><path class="cls-5" d="M40.47 24.2h1.06v1.11h-1.06zm0-1.06h1.06v1.06h-1.06z"/><path class="cls-3" d="M40.47 22.03h1.06v1.11h-1.06zm0-1.06h1.06v1.06h-1.06zm0-1.11h1.06v1.11h-1.06z"/><path class="cls-3" d="M40.47 18.81h1.06v1.06h-1.06zm0-1.11h1.06v1.11h-1.06zm0-1.06h1.06v1.06h-1.06zm0-1.11h1.06v1.11h-1.06z"/><path class="cls-3" d="M40.47 14.48h1.06v1.06h-1.06zm0-2.17h1.06v1.06h-1.06z"/><path class="cls-2" d="M39.36 45.85h1.11v1.11h-1.11z"/><path class="cls-3" d="M39.36 44.8h1.11v1.06h-1.11z"/><path class="cls-4" d="M39.36 43.69h1.11v1.11h-1.11z"/><path class="cls-4" d="M39.36 42.63h1.11v1.06h-1.11zm0-1.11h1.11v1.11h-1.11z"/><path class="cls-4" d="M39.36 40.47h1.11v1.06h-1.11zm0-1.11h1.11v1.11h-1.11zm0-1.06h1.11v1.06h-1.11z"/><path class="cls-3" d="M39.36 36.13h1.11v1.06h-1.11z"/><path class="cls-2" d="M39.36 35.02h1.11v1.11h-1.11z"/><path class="cls-3" d="M39.36 33.97h1.11v1.06h-1.11zm0-1.11h1.11v1.11h-1.11zm0-1.06h1.11v1.06h-1.11zm0-1.11h1.11v1.11h-1.11z"/><path class="cls-3" d="M39.36 29.64h1.11v1.06h-1.11zm0-1.11h1.11v1.11h-1.11zm0-1.06h1.11v1.06h-1.11z"/><path class="cls-5" d="M39.36 26.36h1.11v1.11h-1.11z"/><path class="cls-5" d="M39.36 25.31h1.11v1.06h-1.11zm0-1.11h1.11v1.11h-1.11zm0-1.06h1.11v1.06h-1.11zm0-1.11h1.11v1.11h-1.11zm0-1.06h1.11v1.06h-1.11zm0-1.11h1.11v1.11h-1.11z"/><path class="cls-3" d="M39.36 18.81h1.11v1.06h-1.11zm0-1.11h1.11v1.11h-1.11zm0-1.06h1.11v1.06h-1.11zm0-1.11h1.11v1.11h-1.11z"/><path class="cls-4" d="M39.36 13.37h1.11v1.11h-1.11z"/><path class="cls-3" d="M39.36 12.31h1.11v1.06h-1.11z"/><path class="cls-2" d="M38.31 45.85h1.06v1.11h-1.06z"/><path class="cls-3" d="M38.31 44.8h1.06v1.06h-1.06z"/><path class="cls-4" d="M38.31 43.69h1.06v1.11h-1.06z"/><path class="cls-4" d="M38.31 42.63h1.06v1.06h-1.06zm0-1.11h1.06v1.11h-1.06z"/><path class="cls-2" d="M38.31 40.47h1.06v1.06h-1.06z"/><path class="cls-3" d="M38.31 39.36h1.06v1.11h-1.06z"/><path class="cls-4" d="M38.31 38.3h1.06v1.06h-1.06z"/><path class="cls-3" d="M38.31 36.13h1.06v1.06h-1.06z"/><path class="cls-2" d="M38.31 35.02h1.06v1.11h-1.06z"/><path class="cls-3" d="M38.31 33.97h1.06v1.06h-1.06z"/><path class="cls-4" d="M38.31 32.86h1.06v1.11h-1.06zm0-1.06h1.06v1.06h-1.06zm0-1.11h1.06v1.11h-1.06z"/><path class="cls-4" d="M38.31 29.64h1.06v1.06h-1.06zm0-1.11h1.06v1.11h-1.06z"/><path class="cls-3" d="M38.31 27.47h1.06v1.06h-1.06zm0-1.11h1.06v1.11h-1.06z"/><path class="cls-3" d="M38.31 25.31h1.06v1.06h-1.06zm0-1.11h1.06v1.11h-1.06zm0-1.06h1.06v1.06h-1.06zm0-1.11h1.06v1.11h-1.06zm0-1.06h1.06v1.06h-1.06zm0-1.11h1.06v1.11h-1.06z"/><path class="cls-5" d="M38.31 18.81h1.06v1.06h-1.06zm0-1.11h1.06v1.11h-1.06zm0-1.06h1.06v1.06h-1.06zm0-1.11h1.06v1.11h-1.06z"/><path class="cls-4" d="M38.31 14.48h1.06v1.06h-1.06zm0-1.11h1.06v1.11h-1.06z"/><path class="cls-3" d="M38.31 12.31h1.06v1.06h-1.06z"/><path class="cls-2" d="M37.2 45.85h1.11v1.11H37.2z"/><path class="cls-3" d="M37.2 44.8h1.11v1.06H37.2z"/><path class="cls-4" d="M37.2 43.69h1.11v1.11H37.2z"/><path class="cls-4" d="M37.2 42.63h1.11v1.06H37.2zm0-1.11h1.11v1.11H37.2z"/><path class="cls-2" d="M37.2 40.47h1.11v1.06H37.2z"/><path class="cls-3" d="M37.2 39.36h1.11v1.11H37.2z"/><path class="cls-4" d="M37.2 38.3h1.11v1.06H37.2z"/><path class="cls-3" d="M37.2 36.13h1.11v1.06H37.2z"/><path class="cls-2" d="M37.2 35.02h1.11v1.11H37.2z"/><path class="cls-3" d="M37.2 33.97h1.11v1.06H37.2z"/><path class="cls-4" d="M37.2 32.86h1.11v1.11H37.2zm0-4.33h1.11v1.11H37.2zm0-1.06h1.11v1.06H37.2zm0-1.11h1.11v1.11H37.2z"/><path class="cls-4" d="M37.2 25.31h1.11v1.06H37.2zm0-1.11h1.11v1.11H37.2zm0-1.06h1.11v1.06H37.2zm0-1.11h1.11v1.11H37.2zm0-1.06h1.11v1.06H37.2z"/><path class="cls-3" d="M37.2 19.86h1.11v1.11H37.2z"/><path class="cls-3" d="M37.2 18.81h1.11v1.06H37.2zm0-1.11h1.11v1.11H37.2zm0-1.06h1.11v1.06H37.2z"/><path class="cls-5" d="M37.2 15.53h1.11v1.11H37.2z"/><path class="cls-5" d="M37.2 14.48h1.11v1.06H37.2z"/><path class="cls-4" d="M37.2 13.37h1.11v1.11H37.2z"/><path class="cls-3" d="M37.2 12.31h1.11v1.06H37.2z"/><path class="cls-2" d="M36.14 45.85h1.06v1.11h-1.06z"/><path class="cls-3" d="M36.14 44.8h1.06v1.06h-1.06z"/><path class="cls-4" d="M36.14 43.69h1.06v1.11h-1.06z"/><path class="cls-4" d="M36.14 42.63h1.06v1.06h-1.06zm0-1.11h1.06v1.11h-1.06z"/><path class="cls-2" d="M36.14 40.47h1.06v1.06h-1.06z"/><path class="cls-3" d="M36.14 39.36h1.06v1.11h-1.06z"/><path class="cls-4" d="M36.14 38.3h1.06v1.06h-1.06z"/><path class="cls-3" d="M36.14 36.13h1.06v1.06h-1.06z"/><path class="cls-2" d="M36.14 35.02h1.06v1.11h-1.06z"/><path class="cls-3" d="M36.14 33.97h1.06v1.06h-1.06z"/><path class="cls-4" d="M36.14 32.86h1.06v1.11h-1.06z"/><path class="cls-2" d="M36.14 30.69h1.06v1.11h-1.06z"/><path class="cls-2" d="M36.14 29.64h1.06v1.06h-1.06z"/><path class="cls-4" d="M36.14 20.97h1.06v1.06h-1.06zm0-1.11h1.06v1.11h-1.06z"/><path class="cls-4" d="M36.14 18.81h1.06v1.06h-1.06zm0-1.11h1.06v1.11h-1.06z"/><path class="cls-5" d="M36.14 15.53h1.06v1.11h-1.06z"/><path class="cls-5" d="M36.14 14.48h1.06v1.06h-1.06z"/><path class="cls-4" d="M36.14 13.37h1.06v1.11h-1.06z"/><path class="cls-3" d="M36.14 12.31h1.06v1.06h-1.06z"/><path class="cls-2" d="M35.03 45.85h1.11v1.11h-1.11z"/><path class="cls-3" d="M35.03 44.8h1.11v1.06h-1.11z"/><path class="cls-4" d="M35.03 43.69h1.11v1.11h-1.11z"/><path class="cls-4" d="M35.03 42.63h1.11v1.06h-1.11z"/><path class="cls-3" d="M35.03 41.52h1.11v1.11h-1.11z"/><path class="cls-2" d="M35.03 40.47h1.11v1.06h-1.11z"/><path class="cls-3" d="M35.03 39.36h1.11v1.11h-1.11z"/><path class="cls-4" d="M35.03 38.3h1.11v1.06h-1.11z"/><path class="cls-3" d="M35.03 36.13h1.11v1.06h-1.11z"/><path class="cls-2" d="M35.03 35.02h1.11v1.11h-1.11z"/><path class="cls-3" d="M35.03 33.97h1.11v1.06h-1.11z"/><path class="cls-4" d="M35.03 32.86h1.11v1.11h-1.11z"/><path class="cls-2" d="M35.03 30.69h1.11v1.11h-1.11z"/><path class="cls-2" d="M35.03 29.64h1.11v1.06h-1.11zm0-1.11h1.11v1.11h-1.11zm0-1.06h1.11v1.06h-1.11zm0-1.11h1.11v1.11h-1.11z"/><path class="cls-2" d="M35.03 25.31h1.11v1.06h-1.11zm0-1.11h1.11v1.11h-1.11zm0-1.06h1.11v1.06h-1.11z"/><path class="cls-4" d="M35.03 17.7h1.11v1.11h-1.11z"/><path class="cls-5" d="M35.03 15.53h1.11v1.11h-1.11z"/><path class="cls-5" d="M35.03 14.48h1.11v1.06h-1.11z"/><path class="cls-4" d="M35.03 13.37h1.11v1.11h-1.11z"/><path class="cls-3" d="M35.03 12.31h1.11v1.06h-1.11z"/><path class="cls-2" d="M33.97 45.85h1.06v1.11h-1.06z"/><path class="cls-3" d="M33.97 44.8h1.06v1.06h-1.06z"/><path class="cls-4" d="M33.97 43.69h1.06v1.11h-1.06z"/><path class="cls-4" d="M33.97 42.63h1.06v1.06h-1.06zm0-1.11h1.06v1.11h-1.06z"/><path class="cls-2" d="M33.97 40.47h1.06v1.06h-1.06z"/><path class="cls-3" d="M33.97 39.36h1.06v1.11h-1.06z"/><path class="cls-4" d="M33.97 38.3h1.06v1.06h-1.06z"/><path class="cls-3" d="M33.97 36.13h1.06v1.06h-1.06z"/><path class="cls-2" d="M33.97 35.02h1.06v1.11h-1.06z"/><path class="cls-3" d="M33.97 33.97h1.06v1.06h-1.06z"/><path class="cls-4" d="M33.97 32.86h1.06v1.11h-1.06z"/><path class="cls-2" d="M33.97 30.69h1.06v1.11h-1.06z"/><path class="cls-6" d="M33.97 29.64h1.06v1.06h-1.06zm0-1.11h1.06v1.11h-1.06zm0-1.06h1.06v1.06h-1.06zm0-1.11h1.06v1.11h-1.06z"/><path class="cls-6" d="M33.97 25.31h1.06v1.06h-1.06z"/><path class="cls-5" d="M33.97 24.2h1.06v1.11h-1.06z"/><path class="cls-2" d="M33.97 23.14h1.06v1.06h-1.06zm0-1.11h1.06v1.11h-1.06zm0-1.06h1.06v1.06h-1.06zm0-1.11h1.06v1.11h-1.06z"/><path class="cls-3" d="M33.97 18.81h1.06v1.06h-1.06z"/><path class="cls-4" d="M33.97 17.7h1.06v1.11h-1.06z"/><path class="cls-5" d="M33.97 15.53h1.06v1.11h-1.06z"/><path class="cls-5" d="M33.97 14.48h1.06v1.06h-1.06z"/><path class="cls-4" d="M33.97 13.37h1.06v1.11h-1.06z"/><path class="cls-3" d="M33.97 12.31h1.06v1.06h-1.06z"/><path class="cls-2" d="M32.86 45.85h1.11v1.11h-1.11z"/><path class="cls-3" d="M32.86 44.8h1.11v1.06h-1.11z"/><path class="cls-4" d="M32.86 43.69h1.11v1.11h-1.11z"/><path class="cls-4" d="M32.86 42.63h1.11v1.06h-1.11zm0-1.11h1.11v1.11h-1.11z"/><path class="cls-2" d="M32.86 40.47h1.11v1.06h-1.11z"/><path class="cls-3" d="M32.86 39.36h1.11v1.11h-1.11z"/><path class="cls-4" d="M32.86 38.3h1.11v1.06h-1.11z"/><path class="cls-3" d="M32.86 36.13h1.11v1.06h-1.11z"/><path class="cls-2" d="M32.86 35.02h1.11v1.11h-1.11z"/><path class="cls-3" d="M32.86 33.97h1.11v1.06h-1.11z"/><path class="cls-4" d="M32.86 32.86h1.11v1.11h-1.11z"/><path class="cls-2" d="M32.86 30.69h1.11v1.11h-1.11z"/><path class="cls-7" d="M32.86 29.64h1.11v1.06h-1.11zm0-1.11h1.11v1.11h-1.11z"/><path class="cls-6" d="M32.86 27.47h1.11v1.06h-1.11zm0-1.11h1.11v1.11h-1.11z"/><path class="cls-6" d="M32.86 25.31h1.11v1.06h-1.11zm0-1.11h1.11v1.11h-1.11z"/><path class="cls-5" d="M32.86 23.14h1.11v1.06h-1.11zm0-1.11h1.11v1.11h-1.11zm0-1.06h1.11v1.06h-1.11z"/><path class="cls-2" d="M32.86 19.86h1.11v1.11h-1.11z"/><path class="cls-3" d="M32.86 18.81h1.11v1.06h-1.11z"/><path class="cls-4" d="M32.86 17.7h1.11v1.11h-1.11z"/><path class="cls-5" d="M32.86 15.53h1.11v1.11h-1.11z"/><path class="cls-5" d="M32.86 14.48h1.11v1.06h-1.11z"/><path class="cls-4" d="M32.86 13.37h1.11v1.11h-1.11z"/><path class="cls-3" d="M32.86 12.31h1.11v1.06h-1.11z"/><path class="cls-2" d="M31.81 45.85h1.06v1.11h-1.06z"/><path class="cls-3" d="M31.81 44.8h1.06v1.06h-1.06z"/><path class="cls-4" d="M31.81 43.69h1.06v1.11h-1.06z"/><path class="cls-4" d="M31.81 42.63h1.06v1.06h-1.06zm0-1.11h1.06v1.11h-1.06z"/><path class="cls-2" d="M31.81 40.47h1.06v1.06h-1.06z"/><path class="cls-3" d="M31.81 39.36h1.06v1.11h-1.06z"/><path class="cls-4" d="M31.81 38.3h1.06v1.06h-1.06z"/><path class="cls-3" d="M31.81 36.13h1.06v1.06h-1.06z"/><path class="cls-2" d="M31.81 35.02h1.06v1.11h-1.06z"/><path class="cls-3" d="M31.81 33.97h1.06v1.06h-1.06z"/><path class="cls-4" d="M31.81 32.86h1.06v1.11h-1.06z"/><path class="cls-2" d="M31.81 30.69h1.06v1.11h-1.06z"/><path class="cls-7" d="M31.81 29.64h1.06v1.06h-1.06zm0-1.11h1.06v1.11h-1.06zm0-1.06h1.06v1.06h-1.06zm0-1.11h1.06v1.11h-1.06z"/><path class="cls-6" d="M31.81 25.31h1.06v1.06h-1.06zm0-1.11h1.06v1.11h-1.06zm0-1.06h1.06v1.06h-1.06zm0-1.11h1.06v1.11h-1.06z"/><path class="cls-5" d="M31.81 20.97h1.06v1.06h-1.06z"/><path class="cls-2" d="M31.81 19.86h1.06v1.11h-1.06z"/><path class="cls-3" d="M31.81 18.81h1.06v1.06h-1.06z"/><path class="cls-4" d="M31.81 17.7h1.06v1.11h-1.06z"/><path class="cls-5" d="M31.81 15.53h1.06v1.11h-1.06z"/><path class="cls-5" d="M31.81 14.48h1.06v1.06h-1.06zm0-1.11h1.06v1.11h-1.06zm0-1.06h1.06v1.06h-1.06z"/><path class="cls-2" d="M30.7 45.85h1.11v1.11H30.7z"/><path class="cls-3" d="M30.7 44.8h1.11v1.06H30.7z"/><path class="cls-4" d="M30.7 43.69h1.11v1.11H30.7z"/><path class="cls-4" d="M30.7 42.63h1.11v1.06H30.7zm0-1.11h1.11v1.11H30.7z"/><path class="cls-2" d="M30.7 40.47h1.11v1.06H30.7z"/><path class="cls-3" d="M30.7 39.36h1.11v1.11H30.7z"/><path class="cls-4" d="M30.7 38.3h1.11v1.06H30.7z"/><path class="cls-3" d="M30.7 36.13h1.11v1.06H30.7z"/><path class="cls-2" d="M30.7 35.02h1.11v1.11H30.7z"/><path class="cls-3" d="M30.7 33.97h1.11v1.06H30.7z"/><path class="cls-4" d="M30.7 32.86h1.11v1.11H30.7z"/><path class="cls-2" d="M30.7 30.69h1.11v1.11H30.7z"/><path class="cls-7" d="M30.7 29.64h1.11v1.06H30.7zm0-1.11h1.11v1.11H30.7zm0-1.06h1.11v1.06H30.7zm0-1.11h1.11v1.11H30.7z"/><path class="cls-7" d="M30.7 25.31h1.11v1.06H30.7z"/><path class="cls-6" d="M30.7 24.2h1.11v1.11H30.7zm0-1.06h1.11v1.06H30.7zm0-1.11h1.11v1.11H30.7zm0-1.06h1.11v1.06H30.7z"/><path class="cls-2" d="M30.7 19.86h1.11v1.11H30.7z"/><path class="cls-3" d="M30.7 18.81h1.11v1.06H30.7z"/><path class="cls-4" d="M30.7 17.7h1.11v1.11H30.7z"/><path class="cls-5" d="M30.7 15.53h1.11v1.11H30.7z"/><path class="cls-5" d="M30.7 14.48h1.11v1.06H30.7zm0-1.11h1.11v1.11H30.7zm0-1.06h1.11v1.06H30.7zm0-1.11h1.11v1.11H30.7z"/><path class="cls-5" d="M30.7 10.15h1.11v1.06H30.7z"/><path class="cls-2" d="M29.64 45.85h1.06v1.11h-1.06z"/><path class="cls-3" d="M29.64 44.8h1.06v1.06h-1.06z"/><path class="cls-4" d="M29.64 43.69h1.06v1.11h-1.06z"/><path class="cls-4" d="M29.64 42.63h1.06v1.06h-1.06zm0-1.11h1.06v1.11h-1.06z"/><path class="cls-2" d="M29.64 40.47h1.06v1.06h-1.06z"/><path class="cls-3" d="M29.64 39.36h1.06v1.11h-1.06z"/><path class="cls-4" d="M29.64 38.3h1.06v1.06h-1.06z"/><path class="cls-3" d="M29.64 36.13h1.06v1.06h-1.06z"/><path class="cls-2" d="M29.64 35.02h1.06v1.11h-1.06z"/><path class="cls-3" d="M29.64 33.97h1.06v1.06h-1.06z"/><path class="cls-4" d="M29.64 32.86h1.06v1.11h-1.06z"/><path class="cls-2" d="M29.64 30.69h1.06v1.11h-1.06z"/><path class="cls-7" d="M29.64 29.64h1.06v1.06h-1.06zm0-1.11h1.06v1.11h-1.06zm0-1.06h1.06v1.06h-1.06zm0-1.11h1.06v1.11h-1.06z"/><path class="cls-7" d="M29.64 25.31h1.06v1.06h-1.06zm0-1.11h1.06v1.11h-1.06z"/><path class="cls-6" d="M29.64 23.14h1.06v1.06h-1.06zm0-1.11h1.06v1.11h-1.06zm0-1.06h1.06v1.06h-1.06z"/><path class="cls-2" d="M29.64 19.86h1.06v1.11h-1.06z"/><path class="cls-3" d="M29.64 18.81h1.06v1.06h-1.06z"/><path class="cls-4" d="M29.64 17.7h1.06v1.11h-1.06z"/><path class="cls-6" d="M29.64 15.53h1.06v1.11h-1.06z"/><path class="cls-5" d="M29.64 14.48h1.06v1.06h-1.06zm0-1.11h1.06v1.11h-1.06zm0-1.06h1.06v1.06h-1.06zm0-1.11h1.06v1.11h-1.06z"/><path class="cls-5" d="M29.64 10.15h1.06v1.06h-1.06zm0-1.12h1.06v1.11h-1.06z"/><path class="cls-2" d="M28.53 45.85h1.11v1.11h-1.11z"/><path class="cls-3" d="M28.53 44.8h1.11v1.06h-1.11z"/><path class="cls-4" d="M28.53 43.69h1.11v1.11h-1.11z"/><path class="cls-4" d="M28.53 42.63h1.11v1.06h-1.11zm0-1.11h1.11v1.11h-1.11z"/><path class="cls-2" d="M28.53 40.47h1.11v1.06h-1.11z"/><path class="cls-3" d="M28.53 39.36h1.11v1.11h-1.11z"/><path class="cls-4" d="M28.53 38.3h1.11v1.06h-1.11z"/><path class="cls-3" d="M28.53 36.13h1.11v1.06h-1.11z"/><path class="cls-2" d="M28.53 35.02h1.11v1.11h-1.11z"/><path class="cls-3" d="M28.53 33.97h1.11v1.06h-1.11z"/><path class="cls-4" d="M28.53 32.86h1.11v1.11h-1.11z"/><path class="cls-2" d="M28.53 30.69h1.11v1.11h-1.11z"/><path class="cls-7" d="M28.53 29.64h1.11v1.06h-1.11zm0-1.11h1.11v1.11h-1.11zm0-1.06h1.11v1.06h-1.11zm0-1.11h1.11v1.11h-1.11z"/><path class="cls-7" d="M28.53 25.31h1.11v1.06h-1.11zm0-1.11h1.11v1.11h-1.11z"/><path class="cls-6" d="M28.53 23.14h1.11v1.06h-1.11zm0-1.11h1.11v1.11h-1.11zm0-1.06h1.11v1.06h-1.11z"/><path class="cls-2" d="M28.53 19.86h1.11v1.11h-1.11z"/><path class="cls-3" d="M28.53 18.81h1.11v1.06h-1.11z"/><path class="cls-4" d="M28.53 17.7h1.11v1.11h-1.11z"/><path class="cls-6" d="M28.53 15.53h1.11v1.11h-1.11z"/><path class="cls-6" d="M28.53 14.48h1.11v1.06h-1.11z"/><path class="cls-5" d="M28.53 13.37h1.11v1.11h-1.11z"/><path class="cls-5" d="M28.53 12.31h1.11v1.06h-1.11zm0-1.11h1.11v1.11h-1.11z"/><path class="cls-5" d="M28.53 10.15h1.11v1.06h-1.11zm0-1.12h1.11v1.11h-1.11z"/><path class="cls-5" d="M28.53 7.98h1.11v1.06h-1.11z"/><path class="cls-2" d="M27.48 45.85h1.06v1.11h-1.06z"/><path class="cls-3" d="M27.48 44.8h1.06v1.06h-1.06z"/><path class="cls-4" d="M27.48 43.69h1.06v1.11h-1.06z"/><path class="cls-4" d="M27.48 42.63h1.06v1.06h-1.06zm0-1.11h1.06v1.11h-1.06z"/><path class="cls-4" d="M27.48 40.47h1.06v1.06h-1.06zm0-1.11h1.06v1.11h-1.06zm0-1.06h1.06v1.06h-1.06z"/><path class="cls-3" d="M27.48 36.13h1.06v1.06h-1.06z"/><path class="cls-2" d="M27.48 35.02h1.06v1.11h-1.06z"/><path class="cls-3" d="M27.48 33.97h1.06v1.06h-1.06z"/><path class="cls-4" d="M27.48 32.86h1.06v1.11h-1.06z"/><path class="cls-2" d="M27.48 30.69h1.06v1.11h-1.06z"/><path class="cls-7" d="M27.48 29.64h1.06v1.06h-1.06zm0-1.11h1.06v1.11h-1.06zm0-1.06h1.06v1.06h-1.06zm0-1.11h1.06v1.11h-1.06z"/><path class="cls-7" d="M27.48 25.31h1.06v1.06h-1.06zm0-1.11h1.06v1.11h-1.06z"/><path class="cls-6" d="M27.48 23.14h1.06v1.06h-1.06zm0-1.11h1.06v1.11h-1.06zm0-1.06h1.06v1.06h-1.06z"/><path class="cls-2" d="M27.48 19.86h1.06v1.11h-1.06z"/><path class="cls-3" d="M27.48 18.81h1.06v1.06h-1.06z"/><path class="cls-4" d="M27.48 17.7h1.06v1.11h-1.06z"/><path class="cls-6" d="M27.48 15.53h1.06v1.11h-1.06z"/><path class="cls-6" d="M27.48 14.48h1.06v1.06h-1.06z"/><path class="cls-5" d="M27.48 13.37h1.06v1.11h-1.06z"/><path class="cls-5" d="M27.48 12.31h1.06v1.06h-1.06zm0-1.11h1.06v1.11h-1.06z"/><path class="cls-5" d="M27.48 10.15h1.06v1.06h-1.06zm0-1.12h1.06v1.11h-1.06z"/><path class="cls-2" d="M26.37 45.85h1.11v1.11h-1.11z"/><path class="cls-3" d="M26.37 44.8h1.11v1.06h-1.11z"/><path class="cls-4" d="M26.37 43.69h1.11v1.11h-1.11z"/><path class="cls-4" d="M26.37 42.63h1.11v1.06h-1.11zm0-1.11h1.11v1.11h-1.11z"/><path class="cls-4" d="M26.37 40.47h1.11v1.06h-1.11zm0-1.11h1.11v1.11h-1.11zm0-1.06h1.11v1.06h-1.11z"/><path class="cls-3" d="M26.37 36.13h1.11v1.06h-1.11z"/><path class="cls-2" d="M26.37 35.02h1.11v1.11h-1.11z"/><path class="cls-3" d="M26.37 33.97h1.11v1.06h-1.11z"/><path class="cls-4" d="M26.37 32.86h1.11v1.11h-1.11z"/><path class="cls-2" d="M26.37 30.69h1.11v1.11h-1.11z"/><path class="cls-7" d="M26.37 29.64h1.11v1.06h-1.11zm0-1.11h1.11v1.11h-1.11zm0-1.06h1.11v1.06h-1.11zm0-1.11h1.11v1.11h-1.11z"/><path class="cls-7" d="M26.37 25.31h1.11v1.06h-1.11zm0-1.11h1.11v1.11h-1.11z"/><path class="cls-6" d="M26.37 23.14h1.11v1.06h-1.11zm0-1.11h1.11v1.11h-1.11zm0-1.06h1.11v1.06h-1.11z"/><path class="cls-2" d="M26.37 19.86h1.11v1.11h-1.11z"/><path class="cls-3" d="M26.37 18.81h1.11v1.06h-1.11z"/><path class="cls-4" d="M26.37 17.7h1.11v1.11h-1.11z"/><path class="cls-6" d="M26.37 15.53h1.11v1.11h-1.11z"/><path class="cls-5" d="M26.37 14.48h1.11v1.06h-1.11zm0-1.11h1.11v1.11h-1.11zm0-1.06h1.11v1.06h-1.11zm0-1.11h1.11v1.11h-1.11z"/><path class="cls-5" d="M26.37 10.15h1.11v1.06h-1.11zm0-1.12h1.11v1.11h-1.11z"/><path class="cls-2" d="M25.31 45.85h1.06v1.11h-1.06z"/><path class="cls-3" d="M25.31 44.8h1.06v1.06h-1.06z"/><path class="cls-4" d="M25.31 43.69h1.06v1.11h-1.06z"/><path class="cls-4" d="M25.31 42.63h1.06v1.06h-1.06zm0-1.11h1.06v1.11h-1.06z"/><path class="cls-4" d="M25.31 40.47h1.06v1.06h-1.06zm0-1.11h1.06v1.11h-1.06zm0-1.06h1.06v1.06h-1.06z"/><path class="cls-3" d="M25.31 36.13h1.06v1.06h-1.06z"/><path class="cls-2" d="M25.31 35.02h1.06v1.11h-1.06z"/><path class="cls-3" d="M25.31 33.97h1.06v1.06h-1.06z"/><path class="cls-4" d="M25.31 32.86h1.06v1.11h-1.06z"/><path class="cls-2" d="M25.31 30.69h1.06v1.11h-1.06z"/><path class="cls-7" d="M25.31 29.64h1.06v1.06h-1.06zm0-1.11h1.06v1.11h-1.06zm0-1.06h1.06v1.06h-1.06zm0-1.11h1.06v1.11h-1.06z"/><path class="cls-7" d="M25.31 25.31h1.06v1.06h-1.06zm0-1.11h1.06v1.11h-1.06z"/><path class="cls-6" d="M25.31 23.14h1.06v1.06h-1.06zm0-1.11h1.06v1.11h-1.06zm0-1.06h1.06v1.06h-1.06z"/><path class="cls-2" d="M25.31 19.86h1.06v1.11h-1.06z"/><path class="cls-3" d="M25.31 18.81h1.06v1.06h-1.06z"/><path class="cls-4" d="M25.31 17.7h1.06v1.11h-1.06z"/><path class="cls-6" d="M25.31 15.53h1.06v1.11h-1.06z"/><path class="cls-5" d="M25.31 14.48h1.06v1.06h-1.06zm0-1.11h1.06v1.11h-1.06zm0-1.06h1.06v1.06h-1.06zm0-1.11h1.06v1.11h-1.06z"/><path class="cls-2" d="M24.2 45.85h1.11v1.11H24.2z"/><path class="cls-3" d="M24.2 44.8h1.11v1.06H24.2z"/><path class="cls-4" d="M24.2 43.69h1.11v1.11H24.2z"/><path class="cls-4" d="M24.2 42.63h1.11v1.06H24.2zm0-1.11h1.11v1.11H24.2z"/><path class="cls-4" d="M24.2 40.47h1.11v1.06H24.2zm0-1.11h1.11v1.11H24.2zm0-1.06h1.11v1.06H24.2z"/><path class="cls-3" d="M24.2 36.13h1.11v1.06H24.2z"/><path class="cls-2" d="M24.2 35.02h1.11v1.11H24.2z"/><path class="cls-3" d="M24.2 33.97h1.11v1.06H24.2z"/><path class="cls-4" d="M24.2 32.86h1.11v1.11H24.2z"/><path class="cls-2" d="M24.2 30.69h1.11v1.11H24.2z"/><path class="cls-7" d="M24.2 29.64h1.11v1.06H24.2zm0-1.11h1.11v1.11H24.2zm0-1.06h1.11v1.06H24.2zm0-1.11h1.11v1.11H24.2z"/><path class="cls-7" d="M24.2 25.31h1.11v1.06H24.2zm0-1.11h1.11v1.11H24.2z"/><path class="cls-6" d="M24.2 23.14h1.11v1.06H24.2zm0-1.11h1.11v1.11H24.2zm0-1.06h1.11v1.06H24.2z"/><path class="cls-2" d="M24.2 19.86h1.11v1.11H24.2z"/><path class="cls-3" d="M24.2 18.81h1.11v1.06H24.2z"/><path class="cls-4" d="M24.2 17.7h1.11v1.11H24.2z"/><path class="cls-5" d="M24.2 15.53h1.11v1.11H24.2z"/><path class="cls-5" d="M24.2 14.48h1.11v1.06H24.2zm0-1.11h1.11v1.11H24.2zm0-1.06h1.11v1.06H24.2z"/><path class="cls-2" d="M23.15 45.85h1.06v1.11h-1.06z"/><path class="cls-3" d="M23.15 44.8h1.06v1.06h-1.06z"/><path class="cls-4" d="M23.15 43.69h1.06v1.11h-1.06z"/><path class="cls-4" d="M23.15 42.63h1.06v1.06h-1.06zm0-1.11h1.06v1.11h-1.06z"/><path class="cls-4" d="M23.15 40.47h1.06v1.06h-1.06zm0-1.11h1.06v1.11h-1.06zm0-1.06h1.06v1.06h-1.06z"/><path class="cls-3" d="M23.15 36.13h1.06v1.06h-1.06z"/><path class="cls-2" d="M23.15 35.02h1.06v1.11h-1.06z"/><path class="cls-3" d="M23.15 33.97h1.06v1.06h-1.06z"/><path class="cls-4" d="M23.15 32.86h1.06v1.11h-1.06z"/><path class="cls-2" d="M23.15 30.69h1.06v1.11h-1.06z"/><path class="cls-7" d="M23.15 29.64h1.06v1.06h-1.06zm0-1.11h1.06v1.11h-1.06zm0-1.06h1.06v1.06h-1.06zm0-1.11h1.06v1.11h-1.06z"/><path class="cls-7" d="M23.15 25.31h1.06v1.06h-1.06z"/><path class="cls-6" d="M23.15 24.2h1.06v1.11h-1.06zm0-1.06h1.06v1.06h-1.06zm0-1.11h1.06v1.11h-1.06z"/><path class="cls-5" d="M23.15 20.97h1.06v1.06h-1.06z"/><path class="cls-2" d="M23.15 19.86h1.06v1.11h-1.06z"/><path class="cls-3" d="M23.15 18.81h1.06v1.06h-1.06z"/><path class="cls-4" d="M23.15 17.7h1.06v1.11h-1.06z"/><path class="cls-5" d="M23.15 15.53h1.06v1.11h-1.06z"/><path class="cls-5" d="M23.15 14.48h1.06v1.06h-1.06zm0-1.11h1.06v1.11h-1.06z"/><path class="cls-3" d="M23.15 12.31h1.06v1.06h-1.06z"/><path class="cls-2" d="M22.04 45.85h1.11v1.11h-1.11z"/><path class="cls-3" d="M22.04 44.8h1.11v1.06h-1.11z"/><path class="cls-4" d="M22.04 43.69h1.11v1.11h-1.11z"/><path class="cls-4" d="M22.04 42.63h1.11v1.06h-1.11zm0-1.11h1.11v1.11h-1.11z"/><path class="cls-4" d="M22.04 40.47h1.11v1.06h-1.11zm0-1.11h1.11v1.11h-1.11zm0-1.06h1.11v1.06h-1.11z"/><path class="cls-3" d="M22.04 36.13h1.11v1.06h-1.11z"/><path class="cls-2" d="M22.04 35.02h1.11v1.11h-1.11z"/><path class="cls-3" d="M22.04 33.97h1.11v1.06h-1.11z"/><path class="cls-4" d="M22.04 32.86h1.11v1.11h-1.11z"/><path class="cls-2" d="M22.04 30.69h1.11v1.11h-1.11z"/><path class="cls-7" d="M22.04 29.64h1.11v1.06h-1.11zm0-1.11h1.11v1.11h-1.11zm0-1.06h1.11v1.06h-1.11zm0-1.11h1.11v1.11h-1.11z"/><path class="cls-6" d="M22.04 25.31h1.11v1.06h-1.11zm0-1.11h1.11v1.11h-1.11zm0-1.06h1.11v1.06h-1.11z"/><path class="cls-5" d="M22.04 22.03h1.11v1.11h-1.11zm0-1.06h1.11v1.06h-1.11z"/><path class="cls-2" d="M22.04 19.86h1.11v1.11h-1.11z"/><path class="cls-3" d="M22.04 18.81h1.11v1.06h-1.11z"/><path class="cls-4" d="M22.04 17.7h1.11v1.11h-1.11z"/><path class="cls-5" d="M22.04 15.53h1.11v1.11h-1.11z"/><path class="cls-5" d="M22.04 14.48h1.11v1.06h-1.11z"/><path class="cls-4" d="M22.04 13.37h1.11v1.11h-1.11z"/><path class="cls-3" d="M22.04 12.31h1.11v1.06h-1.11z"/><path class="cls-2" d="M20.98 45.85h1.06v1.11h-1.06z"/><path class="cls-3" d="M20.98 44.8h1.06v1.06h-1.06z"/><path class="cls-4" d="M20.98 43.69h1.06v1.11h-1.06z"/><path class="cls-4" d="M20.98 42.63h1.06v1.06h-1.06zm0-1.11h1.06v1.11h-1.06z"/><path class="cls-4" d="M20.98 40.47h1.06v1.06h-1.06zm0-1.11h1.06v1.11h-1.06zm0-1.06h1.06v1.06h-1.06z"/><path class="cls-3" d="M20.98 36.13h1.06v1.06h-1.06z"/><path class="cls-2" d="M20.98 35.02h1.06v1.11h-1.06z"/><path class="cls-3" d="M20.98 33.97h1.06v1.06h-1.06z"/><path class="cls-4" d="M20.98 32.86h1.06v1.11h-1.06z"/><path class="cls-2" d="M20.98 30.69h1.06v1.11h-1.06z"/><path class="cls-6" d="M20.98 29.64h1.06v1.06h-1.06zm0-1.11h1.06v1.11h-1.06zm0-1.06h1.06v1.06h-1.06zm0-1.11h1.06v1.11h-1.06z"/><path class="cls-6" d="M20.98 25.31h1.06v1.06h-1.06zm0-1.11h1.06v1.11h-1.06zm0-1.06h1.06v1.06h-1.06z"/><path class="cls-5" d="M20.98 22.03h1.06v1.11h-1.06zm0-1.06h1.06v1.06h-1.06z"/><path class="cls-2" d="M20.98 19.86h1.06v1.11h-1.06z"/><path class="cls-3" d="M20.98 18.81h1.06v1.06h-1.06z"/><path class="cls-4" d="M20.98 17.7h1.06v1.11h-1.06zm0-2.17h1.06v1.11h-1.06z"/><path class="cls-4" d="M20.98 14.48h1.06v1.06h-1.06zm0-1.11h1.06v1.11h-1.06z"/><path class="cls-3" d="M20.98 12.31h1.06v1.06h-1.06z"/><path class="cls-2" d="M19.87 45.85h1.11v1.11h-1.11z"/><path class="cls-3" d="M19.87 44.8h1.11v1.06h-1.11z"/><path class="cls-4" d="M19.87 43.69h1.11v1.11h-1.11z"/><path class="cls-4" d="M19.87 42.63h1.11v1.06h-1.11zm0-1.11h1.11v1.11h-1.11z"/><path class="cls-4" d="M19.87 40.47h1.11v1.06h-1.11zm0-1.11h1.11v1.11h-1.11zm0-1.06h1.11v1.06h-1.11z"/><path class="cls-3" d="M19.87 36.13h1.11v1.06h-1.11z"/><path class="cls-2" d="M19.87 35.02h1.11v1.11h-1.11z"/><path class="cls-3" d="M19.87 33.97h1.11v1.06h-1.11z"/><path class="cls-4" d="M19.87 32.86h1.11v1.11h-1.11z"/><path class="cls-2" d="M19.87 30.69h1.11v1.11h-1.11z"/><path class="cls-5" d="M19.87 29.64h1.11v1.06h-1.11z"/><path class="cls-6" d="M19.87 28.53h1.11v1.11h-1.11zm0-1.06h1.11v1.06h-1.11zm0-1.11h1.11v1.11h-1.11z"/><path class="cls-6" d="M19.87 25.31h1.11v1.06h-1.11z"/><path class="cls-5" d="M19.87 24.2h1.11v1.11h-1.11zm0-1.06h1.11v1.06h-1.11zm0-1.11h1.11v1.11h-1.11zm0-1.06h1.11v1.06h-1.11z"/><path class="cls-2" d="M19.87 19.86h1.11v1.11h-1.11z"/><path class="cls-3" d="M19.87 18.81h1.11v1.06h-1.11z"/><path class="cls-4" d="M19.87 17.7h1.11v1.11h-1.11zm0-2.17h1.11v1.11h-1.11z"/><path class="cls-4" d="M19.87 14.48h1.11v1.06h-1.11zm0-1.11h1.11v1.11h-1.11z"/><path class="cls-3" d="M19.87 12.31h1.11v1.06h-1.11z"/><path class="cls-2" d="M18.81 45.85h1.06v1.11h-1.06z"/><path class="cls-3" d="M18.81 44.8h1.06v1.06h-1.06z"/><path class="cls-4" d="M18.81 43.69h1.06v1.11h-1.06z"/><path class="cls-4" d="M18.81 42.63h1.06v1.06h-1.06zm0-1.11h1.06v1.11h-1.06z"/><path class="cls-4" d="M18.81 40.47h1.06v1.06h-1.06zm0-1.11h1.06v1.11h-1.06zm0-1.06h1.06v1.06h-1.06z"/><path class="cls-3" d="M18.81 36.13h1.06v1.06h-1.06z"/><path class="cls-2" d="M18.81 35.02h1.06v1.11h-1.06z"/><path class="cls-3" d="M18.81 33.97h1.06v1.06h-1.06z"/><path class="cls-4" d="M18.81 32.86h1.06v1.11h-1.06z"/><path class="cls-2" d="M18.81 30.69h1.06v1.11h-1.06z"/><path class="cls-2" d="M18.81 29.64h1.06v1.06h-1.06zm0-1.11h1.06v1.11h-1.06zm0-1.06h1.06v1.06h-1.06zm0-1.11h1.06v1.11h-1.06z"/><path class="cls-2" d="M18.81 25.31h1.06v1.06h-1.06zm0-1.11h1.06v1.11h-1.06z"/><path class="cls-5" d="M18.81 23.14h1.06v1.06h-1.06zm0-1.11h1.06v1.11h-1.06zm0-1.06h1.06v1.06h-1.06z"/><path class="cls-2" d="M18.81 19.86h1.06v1.11h-1.06z"/><path class="cls-3" d="M18.81 18.81h1.06v1.06h-1.06z"/><path class="cls-4" d="M18.81 17.7h1.06v1.11h-1.06zm0-2.17h1.06v1.11h-1.06z"/><path class="cls-4" d="M18.81 14.48h1.06v1.06h-1.06z"/><path class="cls-3" d="M18.81 13.37h1.06v1.11h-1.06z"/><path class="cls-2" d="M17.7 45.85h1.11v1.11H17.7z"/><path class="cls-3" d="M17.7 44.8h1.11v1.06H17.7z"/><path class="cls-4" d="M17.7 43.69h1.11v1.11H17.7z"/><path class="cls-4" d="M17.7 42.63h1.11v1.06H17.7z"/><path class="cls-3" d="M17.7 41.52h1.11v1.11H17.7z"/><path class="cls-8" d="M17.7 40.47h1.11v1.06H17.7z"/><path class="cls-4" d="M17.7 39.36h1.11v1.11H17.7zm0-1.06h1.11v1.06H17.7z"/><path class="cls-3" d="M17.7 36.13h1.11v1.06H17.7z"/><path class="cls-2" d="M17.7 35.02h1.11v1.11H17.7z"/><path class="cls-3" d="M17.7 33.97h1.11v1.06H17.7z"/><path class="cls-4" d="M17.7 32.86h1.11v1.11H17.7zm0-1.06h1.11v1.06H17.7zm0-1.11h1.11v1.11H17.7z"/><path class="cls-4" d="M17.7 29.64h1.11v1.06H17.7zm0-1.11h1.11v1.11H17.7zm0-1.06h1.11v1.06H17.7zm0-1.11h1.11v1.11H17.7z"/><path class="cls-4" d="M17.7 25.31h1.11v1.06H17.7z"/><path class="cls-2" d="M17.7 24.2h1.11v1.11H17.7zm0-1.06h1.11v1.06H17.7zm0-1.11h1.11v1.11H17.7zm0-1.06h1.11v1.06H17.7zm0-1.11h1.11v1.11H17.7z"/><path class="cls-3" d="M17.7 18.81h1.11v1.06H17.7z"/><path class="cls-4" d="M17.7 17.7h1.11v1.11H17.7zm0-2.17h1.11v1.11H17.7z"/><path class="cls-3" d="M17.7 14.48h1.11v1.06H17.7z"/><path class="cls-2" d="M16.65 45.85h1.06v1.11h-1.06z"/><path class="cls-3" d="M16.65 44.8h1.06v1.06h-1.06z"/><path class="cls-4" d="M16.65 43.69h1.06v1.11h-1.06z"/><path class="cls-4" d="M16.65 42.63h1.06v1.06h-1.06z"/><path class="cls-3" d="M16.65 41.52h1.06v1.11h-1.06z"/><path class="cls-8" d="M16.65 40.47h1.06v1.06h-1.06z"/><path class="cls-4" d="M16.65 39.36h1.06v1.11h-1.06zm0-1.06h1.06v1.06h-1.06z"/><path class="cls-3" d="M16.65 36.13h1.06v1.06h-1.06z"/><path class="cls-2" d="M16.65 35.02h1.06v1.11h-1.06z"/><path class="cls-3" d="M16.65 33.97h1.06v1.06h-1.06z"/><path class="cls-4" d="M16.65 25.31h1.06v1.06h-1.06zm0-1.11h1.06v1.11h-1.06zm0-1.06h1.06v1.06h-1.06zm0-1.11h1.06v1.11h-1.06zm0-1.06h1.06v1.06h-1.06zm0-1.11h1.06v1.11h-1.06z"/><path class="cls-4" d="M16.65 18.81h1.06v1.06h-1.06zm0-1.11h1.06v1.11h-1.06z"/><path class="cls-3" d="M16.65 15.53h1.06v1.11h-1.06z"/><path class="cls-2" d="M15.54 45.85h1.11v1.11h-1.11z"/><path class="cls-3" d="M15.54 44.8h1.11v1.06h-1.11z"/><path class="cls-4" d="M15.54 43.69h1.11v1.11h-1.11z"/><path class="cls-4" d="M15.54 42.63h1.11v1.06h-1.11zm0-1.11h1.11v1.11h-1.11z"/><path class="cls-4" d="M15.54 40.47h1.11v1.06h-1.11zm0-1.11h1.11v1.11h-1.11zm0-1.06h1.11v1.06h-1.11z"/><path class="cls-3" d="M15.54 36.13h1.11v1.06h-1.11z"/><path class="cls-2" d="M15.54 35.02h1.11v1.11h-1.11z"/><path class="cls-3" d="M15.54 33.97h1.11v1.06h-1.11zm0-1.11h1.11v1.11h-1.11zm0-1.06h1.11v1.06h-1.11zm0-1.11h1.11v1.11h-1.11z"/><path class="cls-3" d="M15.54 29.64h1.11v1.06h-1.11zm0-1.11h1.11v1.11h-1.11zm0-1.06h1.11v1.06h-1.11z"/><path class="cls-2" d="M14.48 45.85h1.06v1.11h-1.06z"/><path class="cls-3" d="M14.48 44.8h1.06v1.06h-1.06z"/><path class="cls-4" d="M14.48 43.69h1.06v1.11h-1.06z"/><path class="cls-4" d="M14.48 42.63h1.06v1.06h-1.06zm0-1.11h1.06v1.11h-1.06z"/><path class="cls-4" d="M14.48 40.47h1.06v1.06h-1.06zm0-1.11h1.06v1.11h-1.06zm0-1.06h1.06v1.06h-1.06z"/><path class="cls-3" d="M14.48 36.13h1.06v1.06h-1.06zm0-8.66h1.06v1.06h-1.06zm0-1.11h1.06v1.11h-1.06z"/><path class="cls-3" d="M14.48 25.31h1.06v1.06h-1.06zm0-1.11h1.06v1.11h-1.06zm0-1.06h1.06v1.06h-1.06zm0-1.11h1.06v1.11h-1.06zm0-1.06h1.06v1.06h-1.06zm0-1.11h1.06v1.11h-1.06zm0-3.22h1.06v1.06h-1.06z"/><path class="cls-2" d="M13.37 45.85h1.11v1.11h-1.11z"/><path class="cls-3" d="M13.37 44.8h1.11v1.06h-1.11zm0-8.67h1.11v1.06h-1.11zm0-16.27h1.11v1.11h-1.11z"/><path class="cls-3" d="M13.37 18.81h1.11v1.06h-1.11zm0-1.11h1.11v1.11h-1.11zm0-1.06h1.11v1.06h-1.11zM12.32 44.8h1.06v1.06h-1.06zm0-1.11h1.06v1.11h-1.06z"/><path class="cls-3" d="M12.32 42.63h1.06v1.06h-1.06zm0-1.11h1.06v1.11h-1.06z"/><path class="cls-3" d="M12.32 40.47h1.06v1.06h-1.06zm0-1.11h1.06v1.11h-1.06zm0-1.06h1.06v1.06h-1.06zm0-1.11h1.06v1.11h-1.06z"/><path class="cls-9" d="M40.47 13.42h1.11v1.06h-1.11zm-1.05 1.06h1.06v1.11h-1.06zm-4.33 4.33h1.06v1.11h-1.06zm0 3.27h1.06v1.06h-1.06zm0-1.11h1.06v1.11h-1.06z"/><path class="cls-9" d="M35.09 19.92h1.06v1.06h-1.06zm1.05 2.16h1.11v1.06h-1.11zm0 6.5h1.11v1.06h-1.11zm0-1.11h1.11v1.11h-1.11z"/><path class="cls-9" d="M36.14 26.42h1.11v1.06h-1.11zm0-1.11h1.11v1.11h-1.11zm0-1.06h1.11v1.06h-1.11zm0-1.11h1.11v1.11h-1.11zm-3.22 8.66h1.06v1.11h-1.06zm4.33-1.05h1.06v1.06h-1.06zm0-1.11h1.06v1.11h-1.06z"/><path class="cls-9" d="M37.25 31.8h1.06v1.11h-1.06zm-11.94 0h1.11v1.11h-1.11zm2.17 0h1.11v1.11h-1.11zm-5.39 0h1.06v1.11h-1.06zm11.88 0h1.11v1.11h-1.11zm2.17 0h1.11v1.11h-1.11zm-6.5 0h1.11v1.11h-1.11zm-10.83 0h1.11v1.11h-1.11z"/><path class="cls-9" d="M24.26 31.8h1.06v1.11h-1.06zm-4.34 0h1.06v1.11h-1.06zm6.5 0h1.06v1.11h-1.06zm2.17 0h1.06v1.11h-1.06zm-7.61 0h1.11v1.11h-1.11zm2.17 0h1.11v1.11h-1.11zm7.6 0h1.06v1.11h-1.06zm4.34 0h1.06v1.11h-1.06zm-3.28 0h1.11v1.11h-1.11zm8.66 5.45h1.11v1.06h-1.11z"/><path class="cls-9" d="M39.42 37.25h1.06v1.06h-1.06zm-1.11 0h1.11v1.06h-1.11zm-1.06 0h1.06v1.06h-1.06zm-1.11 0h1.11v1.06h-1.11zm0-20.61h1.11v1.11h-1.11z"/><path class="cls-9" d="M35.09 37.25h1.06v1.06h-1.06zm0-20.61h1.06v1.11h-1.06zm-1.12 20.61h1.11v1.06h-1.11zm0-20.61h1.11v1.11h-1.11z"/><path class="cls-9" d="M32.92 37.25h1.06v1.06h-1.06zm0-20.61h1.06v1.11h-1.06zm-1.11 20.61h1.11v1.06h-1.11zm0-20.61h1.11v1.11h-1.11zm-1.06 20.61h1.06v1.06h-1.06zm0-20.61h1.06v1.11h-1.06zm-1.11 20.61h1.11v1.06h-1.11zm0-20.61h1.11v1.11h-1.11z"/><path class="cls-9" d="M28.59 37.25h1.06v1.06h-1.06zm0-20.61h1.06v1.11h-1.06zm-1.11 20.61h1.11v1.06h-1.11zm0-20.61h1.11v1.11h-1.11zm-1.06 20.61h1.06v1.06h-1.06zm0-20.61h1.06v1.11h-1.06zm-1.11 20.61h1.11v1.06h-1.11zm0-20.61h1.11v1.11h-1.11z"/><path class="cls-9" d="M24.26 37.25h1.06v1.06h-1.06zm0-20.61h1.06v1.11h-1.06zm-1.11 20.61h1.11v1.06h-1.11zm0-20.61h1.11v1.11h-1.11zm-1.06 20.61h1.06v1.06h-1.06zm0-20.61h1.06v1.11h-1.06zm-1.11 20.61h1.11v1.06h-1.11zm0-20.61h1.11v1.11h-1.11zm-1.06 20.61h1.06v1.06h-1.06zm0-20.61h1.06v1.11h-1.06zm-1.11 20.61h1.11v1.06h-1.11zm0-20.61h1.11v1.11h-1.11z"/><path class="cls-9" d="M17.76 37.25h1.06v1.06h-1.06zm0-20.61h1.06v1.11h-1.06zm-1.11 20.61h1.11v1.06h-1.11zm0-4.34h1.11v1.06h-1.11z"/><path class="cls-9" d="M16.65 31.8h1.11v1.11h-1.11z"/><path class="cls-9" d="M16.65 30.75h1.11v1.06h-1.11zm0-1.11h1.11v1.11h-1.11zm0-1.06h1.11v1.06h-1.11zm0-1.11h1.11v1.11h-1.11z"/><path class="cls-9" d="M16.65 26.42h1.11v1.06h-1.11zm0-9.78h1.11v1.11h-1.11zm-1.06 20.61h1.06v1.06h-1.06zm0-10.83h1.06v1.06h-1.06zm0-1.11h1.06v1.11h-1.06zm0-1.06h1.06v1.06h-1.06zm0-1.11h1.06v1.11h-1.06zm0-1.06h1.06v1.06h-1.06zm0-1.11h1.06v1.11h-1.06z"/><path class="cls-9" d="M15.59 19.92h1.06v1.06h-1.06zm0-1.11h1.06v1.11h-1.06zm0-1.06h1.06v1.06h-1.06zm0-1.11h1.06v1.11h-1.06zm-1.11 20.61h1.11v1.06h-1.11z"/><path class="cls-9" d="M14.48 18.81h1.11v1.11h-1.11zm0-1.06h1.11v1.06h-1.11zm-1.05 25.99h1.06v1.06h-1.06zm0-1.11h1.06v1.11h-1.06z"/><path class="cls-9" d="M13.43 41.58h1.06v1.06h-1.06zm0-1.11h1.06v1.11h-1.06zm0-1.06h1.06v1.06h-1.06zm0-1.11h1.06v1.11h-1.06z"/><path class="cls-9" d="M13.43 37.25h1.06v1.06h-1.06zm51.68-9.58a.31.31 0 01.34.35v1.13c0 .25-.11.34-.34.34H62.6c-.23 0-.29-.11-.34-.34l-.2-1.29a4.51 4.51 0 01-3.77 1.91c-2.42 0-3.63-1.32-3.63-3.92V20h-1.19a.3.3 0 01-.34-.34v-1.2c0-.25.09-.35.34-.35h3.36a.31.31 0 01.34.35v6.72c0 1.64.16 2.56 1.93 2.56a2.46 2.46 0 002.51-2.26V20H60.2a.3.3 0 01-.34-.34v-1.2c0-.25.11-.35.34-.35h3.59c.22 0 .33.12.33.35v9.23zm4.04-9.23c0-.23.09-.35.34-.35h3.05c.22 0 .31.12.36.35l.2 1.33a4.09 4.09 0 013.59-1.93c2.26 0 3.47 1.31 3.47 3.91v5.92h1.3a.31.31 0 01.34.35v1.13c0 .25-.11.34-.34.34h-4.89c-.22 0-.33-.11-.33-.34V28c0-.26.11-.35.33-.35h1.08v-4.74c0-1.64-.16-2.79-1.93-2.79a2.46 2.46 0 00-2.51 2.26v5.29h1.39c.25 0 .34.12.34.35v1.13c0 .25-.12.34-.34.34h-5.09a.3.3 0 01-.34-.34V28c0-.26.11-.35.34-.35h1.19V20h-1.21c-.25 0-.34-.07-.34-.32zm20.08 9.23h1.41A.31.31 0 0191 28v1.13c0 .25-.12.34-.34.34H85.3a.3.3 0 01-.34-.34V28c0-.26.12-.35.34-.35h1.41V14.2H85.5c-.22 0-.33-.11-.33-.34v-1.2c0-.25.09-.35.33-.35h3.39c.22 0 .34.1.34.35zm9.06 0h1.41c.23 0 .34.09.34.35v1.13a.3.3 0 01-.34.34h-5.34c-.22 0-.33-.09-.33-.34V28c0-.23.11-.35.33-.35h1.42V20h-1.22c-.22 0-.33-.09-.33-.34v-1.2c0-.23.11-.35.33-.35H98c.25 0 .34.12.34.35zm-3.14-12.8a1.52 1.52 0 001.59 1.63 1.56 1.56 0 001.62-1.63 1.61 1.61 0 10-3.21 0zm12.2 6.98h1.14l3.48-3.5a.74.74 0 01.58-.26h1.75a.31.31 0 01.34.35v1.2c0 .25-.11.34-.34.34h-1.36l-2.47 2.47 3.07 5.22h1.32a.31.31 0 01.34.35v1.13c0 .25-.11.34-.34.34H112a.53.53 0 01-.51-.3l-3.37-5.57h-.74v4.05h1.19a.31.31 0 01.34.35v1.13c0 .25-.12.34-.34.34h-4.89a.3.3 0 01-.34-.34V28c0-.26.12-.35.34-.35h1.19V14.18h-1.21a.31.31 0 01-.34-.35v-1.17c0-.23.09-.35.34-.35H107a.31.31 0 01.34.35zm10.88 1.93c0-3 1.61-5.94 5.14-5.94s4.37 2.88 4.37 5.36v.79c0 .28-.07.37-.41.37h-6.59c.13 1.95.74 3.47 3.16 3.47a5.66 5.66 0 002.54-.6c.22-.11.36 0 .45.19l.42 1.06c.09.23 0 .34-.2.46a8 8 0 01-3.7.83c-3.74 0-5.18-2.49-5.18-5.99zm7.16-1.13c0-1.38-.36-2.88-2.2-2.88s-2.43 1.66-2.47 2.88zm10.11 5.02h1.42c.22 0 .33.12.33.35v1.13c0 .25-.11.34-.33.34h-5.34a.3.3 0 01-.34-.34V28c0-.26.11-.35.34-.35H133V14.2h-1.21a.3.3 0 01-.34-.34v-1.2c0-.25.09-.35.34-.35h3.39c.22 0 .33.1.33.35zm10.77-.87l2.33-6.8h-1.14a.3.3 0 01-.34-.34v-1.2c0-.25.11-.35.34-.35h3.27a.47.47 0 01.41.69l-4.8 12.88C145.62 33.54 145 35 142.5 35a6.5 6.5 0 01-2.49-.51c-.22-.11-.22-.21-.16-.44l.39-1.12c.06-.24.2-.28.42-.21a5 5 0 001.77.37c.88 0 1.26-.3 1.82-1.85l.56-1.52L141.4 20h-1.12a.3.3 0 01-.34-.34v-1.2c0-.25.12-.35.34-.35h2.94a.41.41 0 01.43.33zM94 39.39h-1.91v6H94V47h-6v-1.63h1.89v-6H88V37.8h6zM98.94 44a1.48 1.48 0 11-1.46 1.47A1.48 1.48 0 0198.94 44zm9.06 3h-2.17v-7.53h-2.63V37.8h7.42l-.21 1.67H108zm6.81-3a1.48 1.48 0 11-1.47 1.47 1.48 1.48 0 011.47-1.47z"/></g></g></g></svg>